<?xml version="1.0" encoding="UTF-8" standalone="no"?>
<svg
   width="25"
   height="25"
   viewBox="0 0 25 25"
   fill="none"
   version="1.1"
   id="svg1"
   xmlns="http://www.w3.org/2000/svg"
   xmlns:svg="http://www.w3.org/2000/svg">
  <defs
     id="defs1" />
  <path
     fill-rule="evenodd"
     clip-rule="evenodd"
     d="M 12.5,25 C 19.403572,25 25,19.403572 25,12.5 25,5.596428 19.403572,0 12.5,0 5.596428,0 0,5.596428 0,12.5 0,19.403572 5.596428,25 12.5,25 Z M 20.035937,9.095401 c 0.520537,-0.52549 0.520537,-1.377455 0,-1.902945 -0.520536,-0.525492 -1.364509,-0.525492 -1.885089,0 l -7.848661,7.92308 -3.45308,-3.485804 c -0.520535,-0.525491 -1.364508,-0.525491 -1.885044,0 -0.520581,0.525491 -0.520581,1.377456 0,1.902946 l 3.767231,3.802947 c 0.86759,0.875849 2.274197,0.875849 3.141787,0 z"
     fill="#C2CCDE"
     id="path1"
     style="fill:#84bd00;fill-opacity:1;stroke-width:0.446428" />
</svg>
