<?xml version="1.0" encoding="UTF-8" standalone="no"?>
<svg
   width="25"
   height="25"
   viewBox="0 0 25 25"
   fill="none"
   version="1.1"
   id="svg1"
   xmlns="http://www.w3.org/2000/svg"
   xmlns:svg="http://www.w3.org/2000/svg">
  <defs
     id="defs1" />
  <path
     fill-rule="evenodd"
     clip-rule="evenodd"
     d="M 25,12.5 C 25,19.403571 19.403571,25 12.5,25 5.596429,25 0,19.403571 0,12.5 0,5.596429 5.596429,0 12.5,0 19.403571,0 25,5.596429 25,12.5 Z M 12.485625,4.241071 c 0.616384,0 1.116071,0.499688 1.116071,1.116072 v 10 c 0,0.616384 -0.499687,1.116071 -1.116071,1.116071 -0.616384,0 -1.116071,-0.499687 -1.116071,-1.116071 v -10 c 0,-0.616384 0.499687,-1.116072 1.116071,-1.116072 z m 1.116071,14.330313 c 0,-0.616384 -0.499687,-1.116071 -1.116071,-1.116071 -0.616384,0 -1.116071,0.499687 -1.116071,1.116071 v 0.714286 c 0,0.616384 0.499687,1.116071 1.116071,1.116071 0.616384,0 1.116071,-0.499687 1.116071,-1.116071 z"
     fill="#C2CCDE"
     id="path1"
     style="fill:#da291c;fill-opacity:1;stroke-width:0.446429" />
</svg>
