<?xml version="1.0" encoding="UTF-8" standalone="no"?>
<svg
   width="25"
   height="25"
   viewBox="0 0 25 25"
   fill="none"
   version="1.1"
   id="svg1"
   xmlns="http://www.w3.org/2000/svg"
   xmlns:svg="http://www.w3.org/2000/svg">
  <defs
     id="defs1" />
  <path
     fill-rule="evenodd"
     clip-rule="evenodd"
     d="M 1.293103,0 C 0.578922,0 0,0.5415726 0,1.209677 0,1.877782 0.578922,2.419355 1.293103,2.419355 h 2.994526 v 3.847984 c 0,1.906129 0.901078,3.714717 2.461423,4.940564 l 1.315776,1.03367 c 0.114827,0.0902 0.232025,0.176371 0.351379,0.258508 -0.119354,0.08214 -0.236552,0.168306 -0.351379,0.258548 l -1.315776,1.033669 c -1.560345,1.225807 -2.461423,3.034396 -2.461423,4.940565 v 3.847782 H 1.293103 C 0.578922,22.580645 0,23.122218 0,23.790323 0,24.458427 0.578922,25 1.293103,25 H 23.706897 C 24.421078,25 25,24.458427 25,23.790323 25,23.122218 24.421078,22.580645 23.706897,22.580645 h -2.994656 v -3.847782 c 0,-1.906169 -0.901034,-3.714758 -2.461379,-4.940565 l -1.315776,-1.033669 c -0.114827,-0.09024 -0.232026,-0.176411 -0.351379,-0.258548 0.119353,-0.08214 0.236552,-0.168307 0.351379,-0.258549 l 1.315776,-1.033629 C 19.811207,9.982056 20.712241,8.173468 20.712241,6.267339 V 2.419355 h 2.994656 C 24.421078,2.419355 25,1.877782 25,1.209677 25,0.5415726 24.421078,0 23.706897,0 Z m 16.955475,20.241935 c 0,0.890767 -0.771897,1.612904 -1.724138,1.612904 H 8.475474 c -0.952198,0 -1.724138,-0.722137 -1.724138,-1.612904 v -1.168991 c 0,-1.421694 0.715647,-2.760404 1.931552,-3.613267 l 0.920991,-0.646008 c 1.716293,-1.203871 4.075862,-1.203871 5.792155,0 l 0.921035,0.646008 c 1.215905,0.852863 1.931509,2.191573 1.931509,3.613267 z"
     fill="#C2CCDE"
     id="path1"
     style="fill:#f6be00;fill-opacity:1;stroke-width:0.416898" />
</svg>
